<?xml version="1.0" standalone="no"?>
<!DOCTYPE svg PUBLIC "-//W3C//DTD SVG 20010904//EN"
 "http://www.w3.org/TR/2001/REC-SVG-20010904/DTD/svg10.dtd">
<svg version="1.0" xmlns="http://www.w3.org/2000/svg"
 width="450.000000pt" height="450.000000pt" viewBox="0 0 450.000000 450.000000"
 preserveAspectRatio="xMidYMid meet">
<metadata>
Created by potrace 1.14, written by Peter Selinger 2001-2017
</metadata>
<g transform="translate(0.000000,450.000000) scale(0.100000,-0.100000)"
fill="#000000" stroke="none">
<path d="M2297 4224 c-2 -3 -24 -7 -48 -9 -101 -11 -143 -16 -149 -20 -3 -2
-24 -6 -46 -9 -21 -3 -49 -8 -61 -11 -13 -3 -31 -7 -41 -9 -94 -21 -292 -84
-306 -97 -6 -5 -16 -9 -23 -9 -18 0 -174 -77 -253 -125 -155 -93 -231 -154
-365 -289 -151 -153 -275 -340 -360 -541 -41 -96 -100 -297 -120 -403 -3 -15
-7 -38 -10 -52 -5 -24 -12 -77 -20 -145 -2 -16 -7 -78 -10 -137 l-7 -108 113
114 c182 181 365 328 559 446 79 48 311 170 325 170 3 0 22 7 43 17 20 9 39
17 42 17 3 1 41 14 85 28 75 25 185 56 230 64 63 11 82 14 119 19 23 3 59 8
81 10 49 6 279 6 320 1 17 -2 51 -7 77 -10 59 -6 204 -36 238 -48 8 -3 60 -20
115 -38 103 -34 314 -131 379 -175 20 -14 39 -25 41 -25 3 0 44 -27 92 -59
l88 -60 14 27 c8 14 28 47 46 72 17 25 34 50 36 55 2 6 78 123 169 260 91 138
197 299 235 358 39 59 78 118 88 129 9 12 17 24 16 27 -1 12 -223 171 -239
171 -4 0 -10 4 -12 8 -7 17 -220 130 -348 185 -100 43 -274 105 -304 110 -11
1 -26 5 -31 9 -27 17 -331 72 -397 72 -16 0 -28 3 -28 7 0 7 -366 10 -373 3z"/>
<path d="M2175 2973 c-11 -2 -51 -11 -90 -20 -38 -10 -72 -18 -75 -18 -3 0
-31 -13 -64 -28 -463 -215 -572 -831 -211 -1193 330 -329 872 -278 1136 107
36 53 87 155 94 189 1 8 9 35 15 60 19 66 21 240 4 313 -64 277 -256 486 -518
562 -83 24 -233 38 -291 28z"/>
<path d="M484 2137 c4 -56 8 -118 11 -137 3 -19 7 -57 10 -85 7 -64 51 -260
77 -345 53 -173 179 -428 265 -535 4 -6 26 -33 48 -60 149 -189 357 -355 586
-471 86 -43 252 -111 289 -119 8 -2 34 -10 58 -19 23 -8 42 -13 42 -11 0 2 17
-2 38 -9 36 -13 230 -49 327 -62 120 -15 490 -8 555 11 8 2 35 7 60 11 25 3
50 7 55 8 52 12 133 29 145 31 8 2 15 4 15 5 0 1 10 3 22 6 47 8 272 89 351
125 146 67 155 72 257 130 92 52 241 151 309 206 l27 22 -170 258 c-93 142
-231 352 -307 466 -75 115 -139 205 -143 200 -5 -7 -84 -63 -135 -95 -109 -70
-352 -191 -405 -203 -9 -2 -40 -13 -69 -24 -52 -19 -57 -21 -77 -26 -5 -2 -28
-7 -50 -13 -63 -17 -171 -35 -275 -47 -56 -7 -270 -6 -330 0 -55 6 -195 29
-237 40 -13 3 -33 7 -45 11 -13 3 -33 7 -45 10 -12 2 -62 18 -110 35 -382 135
-709 346 -1031 665 l-124 123 6 -102z"/>
</g>
</svg>
